<svg width="171" height="42" viewBox="0 0 171 42" fill="none" xmlns="http://www.w3.org/2000/svg">
<path d="M21.689 21.8398L42.689 21.4199V20.5798L21.689 20.1599V21.8398Z" fill="#FC5842"/>
<path d="M22.1091 10.4999H21.269L20.8491 0H22.5291L22.1091 10.4999Z" fill="white"/>
<path d="M21.269 31.5H22.1091L22.5291 41.9999H20.8491L21.269 31.5Z" fill="white"/>
<path d="M11.1889 20.5798V21.4199L0.688965 21.8398V20.1599L11.1889 20.5798Z" fill="white"/>
<path d="M29.4108 13.8723L28.8169 13.2784L35.9444 5.55676L37.1323 6.74479L29.4108 13.8723Z" fill="white"/>
<path d="M13.9673 28.1276L14.5612 28.7215L7.43363 36.4431L6.24561 35.2551L13.9673 28.1276Z" fill="white"/>
<path d="M28.8169 28.7215L29.4108 28.1276L37.1323 35.2551L35.9444 36.4431L28.8169 28.7215Z" fill="white"/>
<path d="M14.5612 13.2783L13.9673 13.8723L6.24561 6.74471L7.43363 5.55688L14.5612 13.2783Z" fill="white"/>
<path d="M18.0587 11.1385L17.2827 11.4599L12.8765 1.92003L14.4285 1.2771L18.0587 11.1385Z" fill="white"/>
<path d="M25.3193 30.8615L26.0954 30.54L30.5016 40.0799L28.9493 40.7229L25.3193 30.8615Z" fill="white"/>
<path d="M11.8277 24.63L12.1491 25.406L2.60924 29.8123L1.96631 28.2602L11.8277 24.63Z" fill="white"/>
<path d="M26.0954 11.4599L25.3193 11.1385L28.9493 1.2771L30.5016 1.92003L26.0954 11.4599Z" fill="white"/>
<path d="M17.2827 30.54L18.0587 30.8615L14.4285 40.7229L12.8765 40.0799L17.2827 30.54Z" fill="white"/>
<path d="M31.229 25.406L31.5503 24.63L41.4118 28.2602L40.7689 29.8123L31.229 25.406Z" fill="white"/>
<path d="M12.1491 16.5939L11.8277 17.3699L1.96631 13.7397L2.60924 12.1876L12.1491 16.5939Z" fill="white"/>
<path d="M20.0522 10.6198L19.2284 10.7836L16.7681 0.567349L18.4159 0.239624L20.0522 10.6198Z" fill="white"/>
<path d="M23.3252 31.3799L24.149 31.2162L26.6095 41.4324L24.9617 41.7601L23.3252 31.3799Z" fill="white"/>
<path d="M11.3089 22.6364L11.4727 23.4604L1.25644 25.9207L0.928711 24.2729L11.3089 22.6364Z" fill="white"/>
<path d="M27.8713 12.503L27.1729 12.0364L32.657 3.07263L34.0538 4.00595L27.8713 12.503Z" fill="white"/>
<path d="M15.506 29.4969L16.2044 29.9638L10.7201 38.9275L9.32324 37.994L15.506 29.4969Z" fill="white"/>
<path d="M30.186 27.1826L30.6527 26.4841L39.6164 31.9685L38.6831 33.3653L30.186 27.1826Z" fill="white"/>
<path d="M13.1916 14.8173L12.725 15.5157L3.76123 10.0314L4.69476 8.63452L13.1916 14.8173Z" fill="white"/>
<path d="M16.2044 12.0364L15.506 12.503L9.32324 4.00595L10.7201 3.07263L16.2044 12.0364Z" fill="white"/>
<path d="M27.1729 29.9638L27.8713 29.4969L34.0538 37.994L32.657 38.9275L27.1729 29.9638Z" fill="white"/>
<path d="M30.6527 15.5157L30.186 14.8173L38.6831 8.63452L39.6164 10.0316L30.6527 15.5157Z" fill="white"/>
<path d="M12.725 26.4841L13.1916 27.1826L4.69455 33.3653L3.76123 31.9685L12.725 26.4841Z" fill="white"/>
<path d="M24.149 10.7836L23.3252 10.6198L24.9617 0.239624L26.6095 0.567349L24.149 10.7836Z" fill="white"/>
<path d="M19.2284 31.2162L20.0522 31.3799L18.4159 41.7601L16.7681 41.4324L19.2284 31.2162Z" fill="white"/>
<path d="M31.9053 23.4604L32.0692 22.6364L42.4494 24.2729L42.1217 25.9207L31.9053 23.4604Z" fill="white"/>
<path d="M11.4727 18.5396L11.3089 19.3636L0.928711 17.727L1.25644 16.0792L11.4727 18.5396Z" fill="white"/>
<path d="M76.8428 26.0119C79.2083 27.9529 81.493 28.9234 83.6967 28.9233C84.869 28.9233 85.7991 28.6706 86.487 28.1651C86.8165 27.9339 87.0833 27.6244 87.2633 27.2644C87.4432 26.9044 87.5308 26.5052 87.518 26.1029C87.5309 25.5759 87.3593 25.061 87.0328 24.6472C86.7092 24.243 86.0925 23.8083 85.1828 23.3432L81.4829 21.5842C79.8452 20.816 78.6978 19.987 78.0407 19.0972C77.3723 18.1724 77.026 17.0536 77.0552 15.9129C77.0315 15.0096 77.2162 14.113 77.5949 13.2925C77.9735 12.4721 78.536 11.7499 79.2387 11.1818C79.9251 10.6258 80.713 10.2086 81.5587 9.95358C82.4577 9.67771 83.3933 9.53967 84.3337 9.54417C84.893 9.54545 85.4512 9.59619 86.0016 9.69578C86.5545 9.79355 87.0975 9.94074 87.624 10.1356C88.1297 10.323 88.617 10.5565 89.08 10.8331C89.5162 11.0926 89.9274 11.3921 90.3082 11.7277V15.9735C89.4406 15.0888 88.4308 14.3559 87.3208 13.8051C86.3474 13.3109 85.2736 13.0463 84.1819 13.0317C83.2115 13.0317 82.4281 13.2592 81.8317 13.7141C81.5423 13.929 81.3096 14.2111 81.1537 14.5361C80.9978 14.861 80.9235 15.2191 80.9371 15.5793C80.9297 16.0633 81.0904 16.5349 81.3919 16.9137C81.6951 17.2981 82.241 17.6721 83.0295 18.0358L86.487 19.6432C87.2873 20.007 88.0579 20.4329 88.7918 20.917C89.3638 21.292 89.8751 21.7522 90.3082 22.2816C90.6831 22.75 90.966 23.2851 91.1422 23.8586C91.32 24.4693 91.4069 25.1029 91.4 25.7389C91.4228 26.6991 91.2192 27.6511 90.8056 28.5178C90.3919 29.3846 89.78 30.1417 89.0192 30.7278C88.2751 31.2974 87.432 31.7241 86.5324 31.9864C85.583 32.2707 84.5969 32.4138 83.6059 32.411C82.3476 32.4135 81.0975 32.2086 79.9059 31.8044C78.8009 31.4467 77.765 30.9031 76.8428 30.1971L76.8428 26.0119Z" fill="white"/>
<path d="M93.1751 20.9776C93.1658 19.4461 93.4702 17.9289 94.0697 16.5195C95.2192 13.7779 97.3964 11.5952 100.135 10.4388C101.539 9.83861 103.051 9.53409 104.578 9.54419C105.597 9.54009 106.612 9.67267 107.596 9.9384C108.548 10.1983 109.461 10.586 110.31 11.0909V15.8219C109.631 15.0655 108.791 14.4698 107.853 14.0781C106.845 13.6563 105.762 13.4447 104.669 13.4563C103.66 13.4482 102.659 13.6442 101.727 14.0325C100.844 14.3987 100.044 14.9404 99.3768 15.6249C98.711 16.3158 98.1857 17.1294 97.8302 18.0207C97.4522 18.9603 97.2616 19.9648 97.2691 20.9776C97.2606 21.9856 97.4513 22.9853 97.8302 23.9193C98.1899 24.8075 98.7206 25.6164 99.3922 26.2999C100.065 26.9815 100.863 27.5272 101.742 27.9073C102.666 28.3065 103.663 28.508 104.669 28.4987C105.762 28.5106 106.845 28.2991 107.853 27.8771C108.792 27.4857 109.631 26.8899 110.31 26.1331V30.8643C109.462 31.3696 108.548 31.7573 107.595 32.0167C106.612 32.2824 105.597 32.4151 104.578 32.411C103.05 32.4211 101.536 32.1111 100.135 31.5011C98.7835 30.9172 97.554 30.0839 96.511 29.0447C95.473 28.0038 94.6443 26.7735 94.0697 25.4205C93.4693 24.0168 93.1648 22.5043 93.1751 20.9776Z" fill="white"/>
<path d="M123.772 9.54422C125.304 9.53122 126.822 9.83582 128.23 10.4388C129.574 11.0143 130.794 11.8432 131.824 12.8802C132.854 13.9244 133.668 15.161 134.22 16.5195C134.8 17.9338 135.094 19.4491 135.084 20.9776C135.094 22.5029 134.795 24.0143 134.205 25.4206C133.642 26.7692 132.829 27.9989 131.809 29.0447C130.78 30.0876 129.56 30.9217 128.215 31.5011C126.811 32.1015 125.299 32.4111 123.772 32.4111C122.245 32.4111 120.733 32.1015 119.329 31.5011C117.984 30.9219 116.763 30.0878 115.735 29.0447C114.715 27.9991 113.902 26.7693 113.339 25.4206C112.167 22.5694 112.167 19.3707 113.339 16.5195C113.899 15.1648 114.712 13.9296 115.735 12.8802C116.783 11.814 118.034 10.9693 119.415 10.3963C120.796 9.82321 122.277 9.53345 123.772 9.54422ZM123.772 28.6201C124.782 28.6334 125.782 28.421 126.699 27.9984C127.559 27.5978 128.332 27.0309 128.973 26.3304C129.617 25.6222 130.121 24.7991 130.459 23.9042C130.816 22.9699 130.995 21.9776 130.99 20.9776C130.995 19.9728 130.815 18.9757 130.459 18.0359C130.123 17.1353 129.619 16.3068 128.973 15.5945C128.334 14.8957 127.561 14.3335 126.699 13.9417C125.775 13.5416 124.779 13.3352 123.772 13.3352C122.765 13.3352 121.769 13.5416 120.845 13.9417C119.983 14.3335 119.21 14.8957 118.571 15.5945C117.925 16.3066 117.421 17.1351 117.085 18.0359C116.729 18.9757 116.549 19.9728 116.554 20.9776C116.548 21.9776 116.728 22.9699 117.085 23.9042C117.423 24.7992 117.927 25.6224 118.571 26.3304C119.215 27.0336 119.994 27.6007 120.861 27.9984C121.773 28.418 122.768 28.6303 123.772 28.6201Z" fill="white"/>
<path d="M137.962 32.047V9.90813H144.21C145.38 9.89346 146.546 10.0571 147.667 10.3933C148.624 10.6785 149.52 11.1415 150.305 11.7581C151.026 12.3354 151.603 13.0726 151.989 13.9113C152.393 14.8066 152.595 15.7799 152.58 16.762C152.618 18.0939 152.224 19.4024 151.458 20.4924C150.642 21.5732 149.523 22.3863 148.243 22.8275L155.127 32.047H150.366L144.028 23.4947H142.056V32.047H137.962ZM142.056 20.2194H144.21C145.503 20.2194 146.53 19.9161 147.288 19.3096C148.046 18.703 148.425 17.8538 148.425 16.762C148.425 15.6703 148.046 14.816 147.288 14.1993C146.53 13.5829 145.504 13.2746 144.21 13.2745H142.056V20.2194Z" fill="white"/>
<path d="M156.896 9.9082H170.543V13.3048H160.899V19.0367H169.785V22.4636H160.899V28.6503H170.604V32.0471H156.896V9.9082Z" fill="white"/>
<path d="M63.9709 9.58895C65.8827 9.5652 67.7647 10.0633 69.4146 11.0295C71.049 11.9971 72.3946 13.3845 73.3117 15.0478L69.8847 17.11C69.3025 16.006 68.4395 15.075 67.3828 14.4109C66.3608 13.7696 65.1773 13.433 63.9709 13.4405C62.9728 13.4293 61.9844 13.6363 61.0747 14.047C60.2127 14.4387 59.4389 15.001 58.8001 15.6998C58.1566 16.4079 57.6524 17.231 57.314 18.126C56.9594 19.0503 56.7795 20.0324 56.7834 21.0223C56.7806 22.0185 56.9657 23.0062 57.3292 23.9337C57.6779 24.8395 58.1921 25.6725 58.8455 26.3902C59.4926 27.0982 60.27 27.6748 61.1353 28.0886C62.0396 28.5187 63.0302 28.7365 64.0315 28.7254C65.6692 28.7254 67.0542 28.2755 68.1864 27.3758C69.3311 26.4559 70.115 25.162 70.4003 23.7215H64.2742V20.3248H74.6461C74.7784 21.9254 74.6296 23.5368 74.2063 25.0861C73.8097 26.5088 73.0999 27.8248 72.1289 28.9378C71.1636 30.0864 69.9363 30.9861 68.5503 31.561C67.0996 32.1643 65.542 32.4686 63.9709 32.4557C62.4474 32.4667 60.9387 32.1567 59.5431 31.5458C58.2038 30.9639 56.9889 30.13 55.9646 29.0894C54.9438 28.0438 54.1308 26.814 53.5686 25.4652C52.9779 24.059 52.6787 22.5475 52.6892 21.0223C52.669 18.004 53.8406 15.0996 55.9494 12.9401C56.9758 11.895 58.1966 11.0605 59.5431 10.4835C60.9413 9.88249 62.449 9.57788 63.9709 9.58895Z" fill="white"/>
</svg>
